<?xml version="1.0" encoding="UTF-8" standalone="no"?>
<svg width="1200" height="600" viewBox="0 0 1200 600" fill="none" xmlns="http://www.w3.org/2000/svg">
  <rect width="1200" height="600" fill="#e6f0ff"/>
  <rect x="100" y="100" width="1000" height="400" rx="20" fill="#1e3a8a" fill-opacity="0.1"/>
  
  <!-- Building outline -->
  <rect x="400" y="200" width="400" height="200" fill="#1e3a8a" fill-opacity="0.2"/>
  <polygon points="400,200 600,100 800,200" fill="#1e3a8a" fill-opacity="0.3"/>
  
  <!-- Windows -->
  <rect x="440" y="240" width="40" height="60" fill="#ffffff"/>
  <rect x="520" y="240" width="40" height="60" fill="#ffffff"/>
  <rect x="600" y="240" width="40" height="60" fill="#ffffff"/>
  <rect x="680" y="240" width="40" height="60" fill="#ffffff"/>
  
  <rect x="440" y="320" width="40" height="60" fill="#ffffff"/>
  <rect x="520" y="320" width="40" height="60" fill="#ffffff"/>
  <rect x="600" y="320" width="40" height="60" fill="#ffffff"/>
  <rect x="680" y="320" width="40" height="60" fill="#ffffff"/>
  
  <!-- Door -->
  <rect x="580" y="340" width="40" height="60" fill="#1e3a8a"/>
  
  <!-- Trees -->
  <circle cx="300" cy="350" r="50" fill="#4ade80"/>
  <circle cx="900" cy="350" r="50" fill="#4ade80"/>
  <rect x="295" y="350" width="10" height="50" fill="#78350f"/>
  <rect x="895" y="350" width="10" height="50" fill="#78350f"/>
  
  <!-- Flag -->
  <rect x="350" y="150" width="5" height="100" fill="#78350f"/>
  <rect x="355" y="150" width="30" height="20" fill="#ef4444"/>
  
  <text x="600" y="500" font-family="Arial" font-size="24" fill="#1e3a8a" text-anchor="middle">St. Paul's British International School</text>
</svg>