<svg width="132" height="22" viewBox="0 0 132 22" fill="none" xmlns="http://www.w3.org/2000/svg">
<rect width="132" height="22" fill="black"/>
<path d="M25.098 15.006C25.098 15.0713 25.1233 15.1338 25.1682 15.1799C25.2132 15.226 25.2741 15.252 25.3377 15.252H25.8171C25.8806 15.252 25.9416 15.226 25.9866 15.1799C26.0315 15.1338 26.0568 15.0713 26.0568 15.006V12.0009H28.1133C28.8507 12.0009 29.5579 11.7003 30.0794 11.1654C30.6008 10.6304 30.8937 9.9048 30.8937 9.14822C30.8937 8.39165 30.6008 7.66606 30.0794 7.13108C29.5579 6.5961 28.8507 6.29555 28.1133 6.29555H25.3233C25.2597 6.29555 25.1988 6.32146 25.1538 6.36758C25.1089 6.4137 25.0836 6.47625 25.0836 6.54147L25.098 15.006ZM26.0568 11.0541V7.26939H28.039C28.5262 7.25416 28.9994 7.43808 29.3545 7.78073C29.7096 8.12337 29.9175 8.59668 29.9326 9.09658C29.9326 9.61412 29.7339 10.1108 29.3794 10.4791C29.025 10.8473 28.5434 11.0575 28.039 11.0639L26.0568 11.0541ZM31.3012 12.6772C31.3012 14.1527 32.3966 15.3823 33.7796 15.3823C35.1626 15.3823 36.2604 14.1527 36.2604 12.6772C36.2604 11.2017 35.165 10.004 33.7796 10.004C32.3942 10.004 31.2772 11.2336 31.2772 12.6772H31.3012ZM32.1593 12.6772C32.1593 11.6664 32.8784 10.85 33.7796 10.85C34.6808 10.85 35.3999 11.6664 35.3999 12.6772C35.3999 13.6879 34.6808 14.5437 33.7796 14.5437C32.8784 14.5437 32.1353 13.7125 32.1353 12.6772H32.1593ZM38.5854 15.247C38.6016 15.2894 38.6312 15.3251 38.6694 15.3482C38.7076 15.3714 38.7523 15.3808 38.7963 15.3749H38.8586C38.9022 15.3777 38.9456 15.367 38.9832 15.3442C39.0209 15.3214 39.0509 15.2876 39.0696 15.247L40.5413 11.4107L42.0609 15.247C42.0805 15.2874 42.1111 15.3209 42.149 15.3437C42.1868 15.3664 42.2304 15.3772 42.2742 15.3749H42.3365C42.3803 15.3788 42.4241 15.3685 42.462 15.3456C42.4998 15.3227 42.5297 15.2882 42.5475 15.247L43.9065 10.427C43.9568 10.2475 43.9065 10.1319 43.7196 10.1319H43.3145C43.269 10.1308 43.2244 10.1439 43.1863 10.1693C43.1482 10.1948 43.1185 10.2315 43.1012 10.2745L42.1999 13.6633L40.8025 10.1319C40.7839 10.0914 40.7538 10.0575 40.7162 10.0347C40.6786 10.0119 40.6352 10.0012 40.5916 10.004H40.5293C40.4857 10.0012 40.4423 10.0119 40.4047 10.0347C40.3671 10.0575 40.337 10.0914 40.3183 10.1319L38.897 13.6387L37.9862 10.2647C37.9666 10.2212 37.935 10.1846 37.8954 10.1593C37.8558 10.1339 37.8099 10.121 37.7632 10.1221H37.3749C37.188 10.1221 37.1353 10.2376 37.188 10.4172L38.5854 15.247ZM44.8341 12.6895C44.8341 14.165 45.7713 15.3749 47.279 15.3749C47.9346 15.3829 48.5758 15.1771 49.1102 14.7872C49.2972 14.647 49.2468 14.5708 49.1605 14.4552C49.0742 14.3396 49.0239 14.2634 48.9472 14.1601C48.8705 14.0568 48.7746 14.0838 48.5997 14.1871C48.2307 14.4297 47.8034 14.5625 47.3652 14.5708C46.9354 14.5533 46.5269 14.3742 46.2175 14.0676C45.9081 13.7611 45.7194 13.3484 45.6874 12.9083H49.2828C49.3391 12.9046 49.3923 12.8806 49.4331 12.8406C49.4739 12.8006 49.4996 12.747 49.5057 12.6895C49.5216 12.5754 49.5304 12.4604 49.5321 12.3452C49.5433 12.0369 49.4928 11.7296 49.3838 11.4421C49.2748 11.1547 49.1095 10.8932 48.8981 10.6738C48.6868 10.4544 48.4338 10.2818 48.155 10.1666C47.8761 10.0514 47.5771 9.99608 47.2766 10.004C45.7473 10.004 44.8101 11.2459 44.8101 12.6895H44.8341ZM45.7066 12.1976C45.7512 11.8045 45.937 11.4426 46.2278 11.1825C46.5185 10.9224 46.8933 10.7828 47.279 10.791C47.6415 10.8017 47.9867 10.9527 48.2454 11.2135C48.5041 11.4744 48.6572 11.8259 48.674 12.1976H45.7066ZM50.8935 15.011C50.8935 15.0762 50.9187 15.1387 50.9637 15.1848C51.0086 15.231 51.0696 15.2569 51.1332 15.2569H51.5191C51.5827 15.2569 51.6436 15.231 51.6886 15.1848C51.7335 15.1387 51.7588 15.0762 51.7588 15.011V11.5902C51.9087 11.3642 52.1114 11.1804 52.3484 11.0554C52.5854 10.9304 52.849 10.8682 53.1154 10.8746C53.2802 10.877 53.443 10.9121 53.5948 10.9779C53.7194 11.0271 53.8345 11.0271 53.8944 10.8623L54.043 10.427C54.1677 10.068 53.5445 10.004 53.1706 10.004C52.8832 9.98875 52.5964 10.0426 52.3329 10.1613C52.0695 10.28 51.8368 10.4603 51.6533 10.6877L51.555 10.3163C51.546 10.2653 51.5195 10.2193 51.4805 10.1864C51.4414 10.1536 51.3922 10.136 51.3417 10.1368H51.102C51.0385 10.1368 50.9775 10.1627 50.9325 10.2088C50.8876 10.255 50.8623 10.3175 50.8623 10.3827L50.8935 15.011ZM54.659 12.6944C54.659 14.1699 55.5914 15.3798 57.1015 15.3798C57.7572 15.3881 58.3985 15.1823 58.9327 14.7921C59.1197 14.6519 59.0693 14.5757 58.983 14.4601C58.8968 14.3445 58.8464 14.2683 58.7697 14.165C58.693 14.0617 58.5971 14.0888 58.4222 14.192C58.0531 14.4343 57.6258 14.5671 57.1878 14.5757C56.758 14.5582 56.3495 14.3791 56.0401 14.0725C55.7306 13.766 55.542 13.3533 55.5099 12.9133H59.1053C59.162 12.9101 59.2159 12.8864 59.2571 12.8463C59.2984 12.8062 59.3244 12.7524 59.3306 12.6944C59.3445 12.5801 59.3525 12.4652 59.3546 12.3501C59.3658 12.0419 59.3153 11.7345 59.2063 11.4471C59.0973 11.1596 58.932 10.8981 58.7206 10.6787C58.5093 10.4593 58.2564 10.2867 57.9775 10.1715C57.6986 10.0563 57.3996 10.001 57.0991 10.0089C55.5675 10.004 54.6351 11.2459 54.6351 12.6895L54.659 12.6944ZM55.5315 12.2025C55.5751 11.8094 55.7602 11.4472 56.0507 11.1869C56.3412 10.9267 56.7159 10.7872 57.1015 10.7959C57.464 10.8067 57.8092 10.9576 58.0679 11.2184C58.3266 11.4793 58.4797 11.8308 58.4965 12.2025H55.5315ZM60.3541 12.6944C60.3541 14.1699 61.3512 15.3995 62.6215 15.3995C63.199 15.3865 63.7489 15.144 64.1556 14.7232L64.2299 15.0675C64.2386 15.1209 64.2642 15.1698 64.3028 15.2067C64.3414 15.2436 64.3907 15.2664 64.4432 15.2716H64.7045C64.768 15.2716 64.829 15.2457 64.8739 15.1996C64.9189 15.1535 64.9441 15.0909 64.9441 15.0257V6.53901C64.9441 6.47379 64.9189 6.41124 64.8739 6.36512C64.829 6.319 64.768 6.29309 64.7045 6.29309H64.3186C64.255 6.29309 64.194 6.319 64.1491 6.36512C64.1041 6.41124 64.0789 6.47379 64.0789 6.53901V10.3385C63.666 10.1061 63.2002 9.99066 62.7294 10.004C61.2289 10.004 60.3325 11.1795 60.3325 12.6772L60.3541 12.6944ZM61.2265 12.6944C61.2265 11.6714 61.7754 10.8672 62.8588 10.8672C63.2725 10.8761 63.6786 10.983 64.0453 11.1795V13.7371C64.0453 13.7371 63.5827 14.5806 62.6863 14.5806C61.7898 14.5806 61.2026 13.6879 61.2026 12.6895L61.2265 12.6944ZM69.5031 15.011C69.5031 15.0762 69.5283 15.1387 69.5733 15.1848C69.6182 15.231 69.6792 15.2569 69.7428 15.2569H70.004C70.0565 15.2517 70.1059 15.2288 70.1444 15.1919C70.183 15.155 70.2086 15.1061 70.2173 15.0528L70.2916 14.7085C70.6987 15.1286 71.2484 15.371 71.8257 15.3848C73.096 15.3848 74.0931 14.1552 74.0931 12.6796C74.0931 11.2041 73.1967 10.0065 71.6962 10.0065C71.2303 9.99597 70.7699 10.1113 70.3612 10.3409V6.53901C70.3612 6.47379 70.3359 6.41124 70.291 6.36512C70.246 6.319 70.185 6.29309 70.1215 6.29309H69.7356C69.672 6.29309 69.611 6.319 69.5661 6.36512C69.5211 6.41124 69.4959 6.47379 69.4959 6.53901L69.5031 15.011ZM70.3755 13.7322V11.1795C70.7499 10.981 71.1646 10.8757 71.586 10.8721C72.6694 10.8721 73.2183 11.6763 73.2183 12.6993C73.2183 13.7223 72.6454 14.5806 71.7346 14.5806C70.8238 14.5806 70.3516 13.7273 70.3516 13.7273L70.3755 13.7322ZM77.1132 15.2397L75.5169 18.7686C75.4949 18.802 75.4828 18.8413 75.4823 18.8816C75.4818 18.922 75.4928 18.9616 75.5139 18.9956C75.5351 19.0296 75.5655 19.0565 75.6014 19.0729C75.6372 19.0894 75.677 19.0948 75.7158 19.0883H76.1521C76.1969 19.0831 76.2397 19.0664 76.2766 19.0398C76.3134 19.0131 76.3432 18.9774 76.363 18.9358L80.1981 10.4319C80.2867 10.2647 80.1981 10.1368 80.0111 10.1368H79.5317C79.487 10.139 79.4437 10.1533 79.4062 10.1784C79.3687 10.2035 79.3384 10.2384 79.3184 10.2795L77.5734 14.192H77.5615L75.7182 10.2795C75.6993 10.2375 75.6693 10.2019 75.6316 10.1767C75.5938 10.1514 75.5499 10.1376 75.5049 10.1368H74.9536C74.7667 10.1368 74.6924 10.2524 74.7667 10.4196L77.1132 15.2397ZM84.4598 15.011C84.4598 15.0762 84.485 15.1387 84.53 15.1848C84.5749 15.231 84.6359 15.2569 84.6994 15.2569H85.1788C85.2424 15.2569 85.3034 15.231 85.3483 15.1848C85.3933 15.1387 85.4185 15.0762 85.4185 15.011V11.514H88.9971C89.0607 11.514 89.1216 11.4881 89.1666 11.4419C89.2115 11.3958 89.2368 11.3333 89.2368 11.2681V10.8992C89.2368 10.834 89.2115 10.7714 89.1666 10.7253C89.1216 10.6792 89.0607 10.6533 88.9971 10.6533H85.3945V7.15381H89.5747C89.6383 7.15381 89.6993 7.1279 89.7442 7.08178C89.7892 7.03566 89.8144 6.97311 89.8144 6.90789V6.53901C89.8144 6.47379 89.7892 6.41124 89.7442 6.36512C89.6993 6.319 89.6383 6.29309 89.5747 6.29309H84.6731C84.6095 6.29309 84.5485 6.319 84.5036 6.36512C84.4586 6.41124 84.4334 6.47379 84.4334 6.53901L84.4598 15.011ZM91.3988 7.77107C91.5164 7.77204 91.6316 7.73705 91.7297 7.67057C91.8279 7.60409 91.9045 7.50913 91.9498 7.39779C91.9952 7.28646 92.0071 7.1638 91.9843 7.04545C91.9614 6.9271 91.9046 6.81842 91.8213 6.73328C91.738 6.64813 91.6318 6.59038 91.5164 6.56738C91.4009 6.54438 91.2814 6.55718 91.1731 6.60414C91.0648 6.6511 90.9725 6.7301 90.9081 6.83106C90.8438 6.93203 90.8101 7.05038 90.8116 7.17103C90.8133 7.32537 90.8727 7.47315 90.9775 7.58389C91.0823 7.69462 91.2245 7.75986 91.3748 7.76615L91.3988 7.77107ZM90.9865 15.011C90.9865 15.0762 91.0118 15.1387 91.0567 15.1848C91.1017 15.231 91.1627 15.2569 91.2262 15.2569H91.6121C91.6757 15.2569 91.7366 15.231 91.7816 15.1848C91.8266 15.1387 91.8518 15.0762 91.8518 15.011V10.3754C91.8518 10.3101 91.8266 10.2476 91.7816 10.2015C91.7366 10.1554 91.6757 10.1294 91.6121 10.1294H91.2262C91.1627 10.1294 91.1017 10.1554 91.0567 10.2015C91.0118 10.2476 90.9865 10.3101 90.9865 10.3754V15.011ZM93.6231 15.011C93.6231 15.0762 93.6484 15.1387 93.6933 15.1848C93.7383 15.231 93.7992 15.2569 93.8628 15.2569H94.2487C94.3123 15.2569 94.3732 15.231 94.4182 15.1848C94.4631 15.1387 94.4884 15.0762 94.4884 15.011V11.5902C94.9173 11.1489 95.4902 10.8861 96.0967 10.8524C96.7942 10.8524 97.2185 11.3246 97.2185 12.296V15.0011C97.2185 15.0663 97.2437 15.1289 97.2887 15.175C97.3336 15.2211 97.3946 15.247 97.4582 15.247H97.8585C97.922 15.247 97.983 15.2211 98.0279 15.175C98.0729 15.1289 98.0981 15.0663 98.0981 15.0011V12.296C98.0981 10.968 97.6188 9.99419 96.1662 9.99419C95.5057 9.99851 94.8683 10.2444 94.3686 10.6877L94.2559 10.2918C94.2482 10.2448 94.2234 10.2026 94.1864 10.1738C94.1494 10.145 94.1031 10.1318 94.057 10.1368H93.8173C93.7537 10.1368 93.6927 10.1627 93.6478 10.2088C93.6028 10.255 93.5776 10.3175 93.5776 10.3827L93.6231 15.011ZM99.4021 13.7002C99.4021 14.7232 100.061 15.3749 100.934 15.3749C101.222 15.3757 101.507 15.3173 101.772 15.2033C102.038 15.0892 102.278 14.9218 102.48 14.7109L102.58 15.0552C102.616 15.1708 102.655 15.247 102.791 15.247H103.031C103.095 15.247 103.156 15.2211 103.2 15.175C103.245 15.1289 103.271 15.0663 103.271 15.0011V12.1632C103.271 10.668 102.959 10.0016 101.686 10.0016C101.094 9.99833 100.506 10.1119 99.9557 10.336C99.9274 10.343 99.9008 10.3562 99.878 10.3747C99.855 10.3932 99.8363 10.4166 99.8231 10.4433C99.8099 10.4699 99.8025 10.4992 99.8014 10.5291C99.8003 10.559 99.8055 10.5888 99.8167 10.6164L99.9174 10.9361C99.9557 11.0516 100.03 11.1156 100.157 11.0639C100.636 10.8823 101.142 10.7874 101.653 10.7836C102.372 10.7836 102.475 11.2164 102.463 12.1632C102.118 12.0615 101.762 12.0061 101.403 11.9984C100.121 12.0009 99.4021 12.7288 99.4021 13.7002ZM100.2 13.7002C100.2 13.0362 100.699 12.6772 101.399 12.6772C101.759 12.6582 102.118 12.7282 102.446 12.8813V13.8846C102.286 14.1028 102.08 14.2812 101.844 14.4064C101.607 14.5316 101.346 14.6004 101.08 14.6076C100.962 14.6137 100.845 14.5943 100.735 14.5508C100.626 14.5073 100.526 14.4405 100.443 14.355C100.36 14.2694 100.296 14.1669 100.254 14.0541C100.212 13.9413 100.194 13.8207 100.2 13.7002ZM105.008 15.006C105.008 15.0713 105.034 15.1338 105.079 15.1799C105.124 15.226 105.185 15.252 105.248 15.252H105.634C105.698 15.252 105.759 15.226 105.803 15.1799C105.848 15.1338 105.874 15.0713 105.874 15.006V6.53901C105.874 6.47379 105.848 6.41124 105.803 6.36512C105.759 6.319 105.698 6.29309 105.634 6.29309H105.248C105.185 6.29309 105.124 6.319 105.079 6.36512C105.034 6.41124 105.008 6.47379 105.008 6.53901V15.006ZM107.405 14.7995C107.864 15.1792 108.437 15.3828 109.026 15.3749C110.049 15.3749 110.747 14.6716 110.747 13.9314C110.747 13.0092 109.975 12.6132 109.114 12.1927C108.604 11.9468 108.192 11.7451 108.192 11.3222C108.192 11.1057 108.343 10.8106 108.911 10.8106C109.26 10.8397 109.6 10.9444 109.908 11.118C109.971 11.1498 110.043 11.1555 110.11 11.134C110.177 11.1125 110.233 11.0654 110.267 11.0025L110.368 10.7983C110.404 10.7341 110.416 10.6589 110.402 10.5863C110.388 10.5137 110.35 10.4485 110.294 10.4024C109.88 10.1356 109.399 9.99728 108.911 10.004C107.75 10.004 107.326 10.7983 107.326 11.3345C107.326 12.205 108.086 12.6526 108.748 12.9846C109.467 13.3559 109.845 13.56 109.845 14.0076C109.845 14.3519 109.546 14.6224 109.033 14.6224C108.608 14.5986 108.2 14.4425 107.863 14.1748C107.839 14.1544 107.81 14.1391 107.78 14.1299C107.75 14.1207 107.718 14.1178 107.687 14.1212C107.655 14.1246 107.625 14.1344 107.597 14.1499C107.569 14.1654 107.545 14.1865 107.525 14.2117C107.489 14.2757 107.401 14.4576 107.353 14.5314C107.335 14.5771 107.332 14.6271 107.343 14.6748C107.353 14.7226 107.378 14.766 107.413 14.7995H107.405ZM112.496 7.76615C112.614 7.76761 112.729 7.73304 112.828 7.66686C112.926 7.60068 113.003 7.5059 113.049 7.39461C113.095 7.28332 113.107 7.16058 113.085 7.04207C113.062 6.92356 113.005 6.81465 112.922 6.72926C112.839 6.64387 112.733 6.58587 112.617 6.56267C112.502 6.53947 112.382 6.55212 112.274 6.599C112.165 6.64589 112.073 6.72488 112.008 6.82589C111.944 6.92691 111.91 7.04535 111.912 7.16611C111.912 7.24544 111.927 7.32392 111.957 7.39706C111.987 7.4702 112.031 7.53655 112.086 7.5923C112.141 7.64805 112.206 7.69211 112.278 7.72194C112.35 7.75178 112.426 7.7668 112.504 7.76615H112.496ZM112.106 15.006C112.106 15.0713 112.131 15.1338 112.176 15.1799C112.221 15.226 112.282 15.252 112.345 15.252H112.731C112.795 15.252 112.856 15.226 112.901 15.1799C112.946 15.1338 112.971 15.0713 112.971 15.006V10.3754C112.971 10.3101 112.946 10.2476 112.901 10.2015C112.856 10.1554 112.795 10.1294 112.731 10.1294H112.345C112.282 10.1294 112.221 10.1554 112.176 10.2015C112.131 10.2476 112.106 10.3101 112.106 10.3754V15.006ZM115.059 13.9683C115.059 14.7626 115.207 15.3749 116.204 15.3749C116.71 15.3464 117.202 15.1983 117.643 14.9421C117.782 14.8511 117.817 14.7749 117.731 14.6224L117.544 14.3027C117.482 14.1994 117.432 14.1232 117.245 14.224C116.963 14.3807 116.653 14.4769 116.334 14.5068C116.049 14.5068 115.924 14.4035 115.924 13.892V10.8992H117.362C117.426 10.8992 117.487 10.8733 117.532 10.8271C117.577 10.781 117.602 10.7185 117.602 10.6533V10.3754C117.602 10.3101 117.577 10.2476 117.532 10.2015C117.487 10.1554 117.426 10.1294 117.362 10.1294H115.924V8.68835C115.924 8.62561 115.901 8.56519 115.859 8.51948C115.817 8.47376 115.76 8.4462 115.699 8.44243L115.301 8.46702C115.237 8.46702 115.176 8.49293 115.131 8.53905C115.086 8.58517 115.061 8.64772 115.061 8.71294V10.1319H114.426C114.362 10.1319 114.301 10.1578 114.256 10.2039C114.211 10.25 114.186 10.3126 114.186 10.3778V10.6606C114.186 10.7259 114.211 10.7884 114.256 10.8345C114.301 10.8806 114.362 10.9065 114.426 10.9065H115.061L115.059 13.9683ZM118.632 12.6895C118.632 14.165 119.567 15.3749 121.075 15.3749C121.726 15.3796 122.361 15.1739 122.892 14.7872C123.079 14.647 123.028 14.5708 122.942 14.4552C122.856 14.3396 122.803 14.2634 122.729 14.1601C122.654 14.0568 122.554 14.0838 122.381 14.1871C122.012 14.4294 121.585 14.5621 121.147 14.5708C120.717 14.5533 120.308 14.3742 119.999 14.0676C119.69 13.7611 119.501 13.3484 119.469 12.9083H123.064C123.121 12.9046 123.174 12.8806 123.215 12.8406C123.255 12.8006 123.281 12.747 123.287 12.6895C123.302 12.5753 123.311 12.4603 123.314 12.3452C123.324 12.0368 123.274 11.7294 123.164 11.442C123.055 11.1545 122.89 10.893 122.678 10.6737C122.467 10.4543 122.213 10.2818 121.934 10.1666C121.655 10.0514 121.356 9.9961 121.056 10.004C119.555 10.004 118.62 11.2459 118.62 12.6895H118.632ZM119.505 12.1976C119.549 11.805 119.735 11.4434 120.025 11.1833C120.315 10.9233 120.69 10.7834 121.075 10.791C121.438 10.8011 121.784 10.9518 122.043 11.2127C122.302 11.4736 122.455 11.8255 122.472 12.1976H119.505Z" fill="white"/>
<g opacity="0.65" clip-path="url(#clip0_1_57)">
<path d="M19.5683 8.27029L13.763 3.43058C13.564 3.24163 13.3031 3.1363 13.032 3.13548C12.7755 3.13331 12.5275 3.22983 12.3369 3.40599L6.47644 8.29734L6.42371 8.35144C6.23865 8.55946 6.13806 8.83216 6.14251 9.11376C6.14697 9.39536 6.25614 9.66457 6.44768 9.86631L12.3105 14.5708C12.5093 14.7497 12.7651 14.8477 13.0296 14.8462C13.2875 14.8467 13.537 14.7515 13.7319 14.5781L15.9538 12.7755L15.031 12.0034L13.0176 13.624L7.3609 9.09904L13.0344 4.36754L18.6623 9.05478L15.9898 11.2213L16.9174 11.9935L17.5765 11.4574L19.5468 9.87123L19.5899 9.82942C19.7894 9.62355 19.9014 9.34508 19.9015 9.05478C19.9012 8.9076 19.8714 8.76206 19.8141 8.62713C19.7568 8.49221 19.6732 8.37076 19.5683 8.27029Z" fill="white"/>
<path d="M19.5683 12.6723L13.763 7.83255C13.564 7.6436 13.3031 7.53827 13.032 7.53745C12.7755 7.53528 12.5275 7.63179 12.3369 7.80796L10.0694 9.704L11.0282 10.4614L13.0512 8.77442L18.6671 13.4567L13.0248 18.0186L7.37768 13.4936L10.0694 11.2484L9.12502 10.4909L6.48842 12.7042L6.43569 12.7583C6.25016 12.9664 6.14907 13.2394 6.15308 13.5214C6.15709 13.8034 6.26589 14.0732 6.45726 14.2757L12.3153 18.9678C12.5102 19.1443 12.7612 19.2417 13.0212 19.2417C13.2812 19.2417 13.5322 19.1443 13.7271 18.9678L17.5741 15.852L19.542 14.2658L19.5875 14.224C19.6869 14.1224 19.7659 14.0017 19.8197 13.8688C19.8736 13.7359 19.9014 13.5933 19.9015 13.4494C19.895 13.1553 19.7752 12.8759 19.5683 12.6723Z" fill="white"/>
</g>
<defs>
<clipPath id="clip0_1_57">
<rect width="13.7591" height="16.1063" fill="white" transform="translate(6.14237 3.13544)"/>
</clipPath>
</defs>
</svg>
